<!DOCTYPE svg PUBLIC "-//W3C//DTD SVG 20010904//EN" "http://www.w3.org/TR/2001/REC-SVG-20010904/DTD/svg10.dtd">
<svg version="1.0" xmlns="http://www.w3.org/2000/svg" width="1219px" height="1600px" viewBox="0 0 12190 16000" preserveAspectRatio="xMidYMid meet">
<g id="layer1" fill="#323232" stroke="none">
 <path d="M5330 15620 l0 -380 765 0 765 0 0 380 0 380 -765 0 -765 0 0 -380z"/>
 <path d="M0 12955 l0 -2285 380 0 380 0 0 -765 0 -765 380 0 380 0 0 -380 0 -380 385 0 385 0 0 -2285 0 -2285 380 0 380 0 0 -380 0 -380 380 0 380 0 0 -1145 0 -1145 380 0 380 0 0 -380 0 -380 1525 0 1525 0 0 380 0 380 380 0 380 0 0 1145 0 1145 380 0 380 0 0 380 0 380 380 0 380 0 0 2285 0 2285 385 0 385 0 0 380 0 380 380 0 380 0 0 765 0 765 380 0 380 0 0 2285 0 2285 -380 0 -380 0 0 -2285 0 -2285 -380 0 -380 0 0 -765 0 -765 -385 0 -385 0 0 -380 0 -380 -380 0 -380 0 0 -2285 0 -2285 -380 0 -380 0 0 -380 0 -380 -380 0 -380 0 0 -1145 0 -1145 -1525 0 -1525 0 0 1145 0 1145 -380 0 -380 0 0 380 0 380 -380 0 -380 0 0 2285 0 2285 -380 0 -380 0 0 380 0 380 -385 0 -385 0 0 765 0 765 -380 0 -380 0 0 2285 0 2285 -380 0 -380 0 0 -2285z"/>
 </g>
<g id="layer2" fill="#4c4c4c" stroke="none">
 <path d="M760 15620 l0 -380 380 0 380 0 0 -380 0 -380 385 0 385 0 0 -385 0 -385 760 0 760 0 0 -380 0 -380 380 0 380 0 0 380 0 380 -380 0 -380 0 0 385 0 385 -760 0 -760 0 0 380 0 380 -385 0 -385 0 0 380 0 380 -380 0 -380 0 0 -380z"/>
 <path d="M4570 15620 l0 -380 380 0 380 0 0 380 0 380 -380 0 -380 0 0 -380z"/>
 <path d="M6860 15620 l0 -380 380 0 380 0 0 380 0 380 -380 0 -380 0 0 -380z"/>
 <path d="M10670 15620 l0 -380 -385 0 -385 0 0 -380 0 -380 -760 0 -760 0 0 -385 0 -385 -380 0 -380 0 0 -380 0 -380 380 0 380 0 0 380 0 380 760 0 760 0 0 385 0 385 385 0 385 0 0 380 0 380 380 0 380 0 0 380 0 380 -380 0 -380 0 0 -380z"/>
 </g>
<g id="layer3" fill="#6d6d6d" stroke="none">
 <path d="M760 12955 l0 -2285 380 0 380 0 0 -765 0 -765 385 0 385 0 0 765 0 765 -385 0 -385 0 0 1520 0 1520 385 0 385 0 0 -380 0 -380 380 0 380 0 0 -380 0 -380 380 0 380 0 0 760 0 760 -760 0 -760 0 0 385 0 385 -385 0 -385 0 0 380 0 380 -380 0 -380 0 0 -2285z"/>
 <path d="M4570 14095 l0 -1145 380 0 380 0 0 765 0 765 765 0 765 0 0 -765 0 -765 380 0 380 0 0 1145 0 1145 -1525 0 -1525 0 0 -1145z"/>
 <path d="M10670 14860 l0 -380 -385 0 -385 0 0 -385 0 -385 -760 0 -760 0 0 -760 0 -760 380 0 380 0 0 380 0 380 380 0 380 0 0 380 0 380 385 0 385 0 0 -1520 0 -1520 -385 0 -385 0 0 -765 0 -765 385 0 385 0 0 765 0 765 380 0 380 0 0 2285 0 2285 -380 0 -380 0 0 -380z"/>
 </g>
<g id="layer4" fill="#e36e1a" stroke="none">
 <path d="M4570 1525 l0 -765 1525 0 1525 0 0 765 0 765 -380 0 -380 0 0 -385 0 -385 -765 0 -765 0 0 385 0 385 -380 0 -380 0 0 -765z"/>
 </g>
<g id="layer5" fill="#979797" stroke="none">
 <path d="M3810 12570 l0 -380 -380 0 -380 0 0 -380 0 -380 -380 0 -380 0 0 -1525 0 -1525 380 0 380 0 0 -2285 0 -2285 380 0 380 0 0 -380 0 -380 380 0 380 0 0 -380 0 -380 1525 0 1525 0 0 380 0 380 380 0 380 0 0 380 0 380 380 0 380 0 0 2285 0 2285 380 0 380 0 0 1525 0 1525 -380 0 -380 0 0 380 0 380 -380 0 -380 0 0 380 0 380 -2285 0 -2285 0 0 -380z m4570 -760 l0 -380 380 0 380 0 0 -1525 0 -1525 -380 0 -380 0 0 -2285 0 -2285 -380 0 -380 0 0 -380 0 -380 -1525 0 -1525 0 0 380 0 380 -380 0 -380 0 0 2285 0 2285 -380 0 -380 0 0 1525 0 1525 380 0 380 0 0 380 0 380 2285 0 2285 0 0 -380z"/>
 </g>
<g id="layer6" fill="#f09859" stroke="none">
 <path d="M5330 1905 l0 -385 765 0 765 0 0 385 0 385 -765 0 -765 0 0 -385z"/>
 </g>
<g id="layer7" fill="#a3a1bd" stroke="none">
 <path d="M5330 13715 l0 -765 765 0 765 0 0 765 0 765 -765 0 -765 0 0 -765z"/>
 </g>
<g id="layer8" fill="#93b8ef" stroke="none">
 <path d="M5330 6095 l0 -765 385 0 385 0 0 385 0 385 380 0 380 0 0 380 0 380 -765 0 -765 0 0 -765z"/>
 </g>
<g id="layer9" fill="#d4cece" stroke="none">
 <path d="M4570 6095 l0 -1525 1525 0 1525 0 0 1525 0 1525 -1525 0 -1525 0 0 -1525z m2290 0 l0 -765 -765 0 -765 0 0 765 0 765 765 0 765 0 0 -765z"/>
 </g>
<g id="layer10" fill="#c6d9f5" stroke="none">
 <path d="M6100 5715 l0 -385 380 0 380 0 0 385 0 385 -380 0 -380 0 0 -385z"/>
 </g>
<g id="layer11" fill="#e5e0e0" stroke="none">
 <path d="M1520 12570 l0 -380 385 0 385 0 0 -380 0 -380 -385 0 -385 0 0 -380 0 -380 385 0 385 0 0 380 0 380 380 0 380 0 0 380 0 380 -380 0 -380 0 0 380 0 380 -385 0 -385 0 0 -380z"/>
 <path d="M9900 12570 l0 -380 -380 0 -380 0 0 -380 0 -380 380 0 380 0 0 -380 0 -380 385 0 385 0 0 380 0 380 -385 0 -385 0 0 380 0 380 385 0 385 0 0 380 0 380 -385 0 -385 0 0 -380z"/>
 <path d="M5330 11810 l0 -380 -380 0 -380 0 0 -380 0 -380 -380 0 -380 0 0 -385 0 -385 -380 0 -380 0 0 -760 0 -760 380 0 380 0 0 380 0 380 380 0 380 0 0 -760 0 -760 -380 0 -380 0 0 -380 0 -380 380 0 380 0 0 380 0 380 1525 0 1525 0 0 -380 0 -380 380 0 380 0 0 380 0 380 -380 0 -380 0 0 760 0 760 380 0 380 0 0 -380 0 -380 380 0 380 0 0 760 0 760 -380 0 -380 0 0 385 0 385 -380 0 -380 0 0 380 0 380 -380 0 -380 0 0 380 0 380 -765 0 -765 0 0 -380z m1530 -760 l0 -380 380 0 380 0 0 -385 0 -385 -380 0 -380 0 0 -760 0 -760 -380 0 -380 0 0 380 0 380 -385 0 -385 0 0 380 0 380 -380 0 -380 0 0 385 0 385 380 0 380 0 0 380 0 380 765 0 765 0 0 -380z"/>
 <path d="M5330 10285 l0 -385 765 0 765 0 0 385 0 385 -765 0 -765 0 0 -385z"/>
 <path d="M3810 4190 l0 -380 380 0 380 0 0 380 0 380 -380 0 -380 0 0 -380z"/>
 <path d="M5330 4190 l0 -380 385 0 385 0 0 -380 0 -380 380 0 380 0 0 380 0 380 -380 0 -380 0 0 380 0 380 -385 0 -385 0 0 -380z"/>
 <path d="M7620 4190 l0 -380 380 0 380 0 0 380 0 380 -380 0 -380 0 0 -380z"/>
 </g>
<g id="layer12" fill="#efefef" stroke="none">
 <path d="M1520 13330 l0 -380 385 0 385 0 0 -380 0 -380 -385 0 -385 0 0 -380 0 -380 385 0 385 0 0 380 0 380 380 0 380 0 0 380 0 380 -380 0 -380 0 0 380 0 380 -385 0 -385 0 0 -380z"/>
 <path d="M9900 13330 l0 -380 -380 0 -380 0 0 -380 0 -380 380 0 380 0 0 -380 0 -380 385 0 385 0 0 380 0 380 -385 0 -385 0 0 380 0 380 385 0 385 0 0 380 0 380 -385 0 -385 0 0 -380z"/>
 <path d="M3810 11810 l0 -380 -380 0 -380 0 0 -765 0 -765 380 0 380 0 0 385 0 385 380 0 380 0 0 -385 0 -385 380 0 380 0 0 -380 0 -380 385 0 385 0 0 -380 0 -380 380 0 380 0 0 760 0 760 380 0 380 0 0 385 0 385 380 0 380 0 0 -385 0 -385 380 0 380 0 0 765 0 765 -380 0 -380 0 0 380 0 380 -760 0 -760 0 0 -380 0 -380 -765 0 -765 0 0 380 0 380 -760 0 -760 0 0 -380z m1520 -760 l0 -380 765 0 765 0 0 380 0 380 380 0 380 0 0 -380 0 -380 -380 0 -380 0 0 -385 0 -385 -765 0 -765 0 0 385 0 385 -380 0 -380 0 0 380 0 380 380 0 380 0 0 -380z"/>
 <path d="M3810 8380 l0 -760 380 0 380 0 0 760 0 760 -380 0 -380 0 0 -760z"/>
 <path d="M7620 8380 l0 -760 380 0 380 0 0 760 0 760 -380 0 -380 0 0 -760z"/>
 <path d="M3810 5715 l0 -1145 380 0 380 0 0 -760 0 -760 765 0 765 0 0 380 0 380 380 0 380 0 0 -380 0 -380 380 0 380 0 0 760 0 760 380 0 380 0 0 1145 0 1145 -380 0 -380 0 0 -1145 0 -1145 -760 0 -760 0 0 -380 0 -380 -385 0 -385 0 0 380 0 380 -380 0 -380 0 0 1145 0 1145 -380 0 -380 0 0 -1145z"/>
 </g>

</svg>